<svg width="153" height="127" viewBox="0 0 153 127" fill="none" xmlns="http://www.w3.org/2000/svg">
<path d="M151.318 9.85252C151.526 9.44148 151.375 8.93878 150.982 8.7297L144.568 5.32257C144.175 5.11349 143.687 5.27721 143.48 5.68824C143.272 6.09928 143.423 6.60198 143.816 6.81106L149.517 9.83963L146.508 15.7936C146.3 16.2046 146.451 16.7073 146.844 16.9164C147.238 17.1255 147.725 16.9618 147.933 16.5507L151.318 9.85252ZM2.68581 126.194C4.24948 124.12 5.87963 122.003 7.57451 119.849L6.33183 118.806C4.62971 120.968 2.99241 123.095 1.42168 125.178L2.68581 126.194ZM17.7443 107.441C21.1026 103.502 24.6465 99.4946 28.3667 95.4552L27.2089 94.3118C23.4737 98.3674 19.9156 102.391 16.5438 106.346L17.7443 107.441ZM39.4257 83.9025C43.1195 80.1913 46.9527 76.4836 50.9183 72.808L49.8541 71.5708C45.8714 75.2622 42.022 78.9856 38.313 82.7121L39.4257 83.9025ZM62.8401 62.2161C66.8456 58.8088 70.9643 55.4556 75.19 52.1811L74.2375 50.8491C69.991 54.1397 65.8528 57.5089 61.8289 60.9318L62.8401 62.2161ZM87.9804 42.7587C92.2949 39.7439 96.705 36.8267 101.205 34.0295L100.392 32.6008C95.8654 35.4142 91.4308 38.3476 87.0934 41.3785L87.9804 42.7587ZM114.869 26.0758C119.485 23.5705 124.183 21.2043 128.958 18.9989L128.321 17.4753C123.513 19.6959 118.784 22.0778 114.138 24.5989L114.869 26.0758ZM143.454 12.9076C145.9 11.9818 148.363 11.101 150.843 10.2679L150.368 8.68C147.868 9.51962 145.385 10.4072 142.921 11.34L143.454 12.9076ZM152.031 10.2311C152.446 9.40902 152.145 8.40361 151.358 7.98546L138.531 1.17119C137.744 0.753028 136.769 1.08047 136.354 1.90254C135.938 2.72461 136.24 3.73002 137.027 4.14817L148.428 10.2053L142.41 22.1133C141.994 22.9353 142.296 23.9407 143.083 24.3589C143.87 24.777 144.845 24.4496 145.26 23.6275L152.031 10.2311ZM3.31788 126.702C4.87802 124.633 6.50459 122.52 8.19585 120.371L5.71049 118.284C4.00475 120.451 2.36387 122.582 0.789608 124.67L3.31788 126.702ZM18.3446 107.988C21.6961 104.058 25.2328 100.058 28.9456 96.0268L26.63 93.7401C22.8874 97.8039 19.3221 101.836 15.9435 105.798L18.3446 107.988ZM39.982 84.4978C43.6682 80.7942 47.4934 77.0943 51.4504 73.4266L49.322 70.9521C45.3307 74.6515 41.4733 78.3827 37.7566 82.1169L39.982 84.4978ZM63.3456 62.8583C67.342 59.4588 71.4509 56.1136 75.6662 52.8471L73.7612 50.1831C69.5044 53.4818 65.3564 56.8589 61.3233 60.2896L63.3456 62.8583ZM88.4239 43.4488C92.7269 40.442 97.1247 37.5329 101.612 34.7439L99.9849 31.8865C95.4457 34.7079 90.9988 37.6495 86.6499 40.6884L88.4239 43.4488ZM115.234 26.8142C119.836 24.3168 124.518 21.9585 129.277 19.7608L128.002 16.7134C123.178 18.9417 118.433 21.3314 113.773 23.8605L115.234 26.8142ZM143.72 13.6914C146.157 12.7691 148.611 11.8917 151.081 11.0619L150.13 7.88605C147.62 8.72894 145.128 9.61989 142.655 10.5562L143.72 13.6914Z" fill="#9BBDCF"/>
</svg>
