<svg width="188" height="60" viewBox="0 0 188 60" fill="none" xmlns="http://www.w3.org/2000/svg">
<path d="M185.603 1.77714C185.558 1.32547 185.157 1.00168 184.708 1.05392L177.385 1.9053C176.935 1.95754 176.608 2.36604 176.652 2.81771C176.697 3.26938 177.098 3.59317 177.548 3.54093L184.057 2.78415L184.709 9.32668C184.754 9.77834 185.154 10.1021 185.604 10.0499C186.053 9.99765 186.381 9.58915 186.336 9.13748L185.603 1.77714ZM0.79419 54.3314C3.5485 54.8728 6.27702 55.3665 8.97957 55.8139L9.2691 54.189C6.58259 53.7443 3.86996 53.2535 1.13138 52.7152L0.79419 54.3314ZM25.4713 58.0151C31.1343 58.5865 36.6717 58.9522 42.0816 59.1276L42.1594 57.4819C36.7867 57.3077 31.286 56.9445 25.6592 56.3767L25.4713 58.0151ZM58.7551 59.067C64.4682 58.8357 70.0212 58.3897 75.4115 57.7503L75.2449 56.1151C69.8967 56.7495 64.3858 57.1922 58.7145 57.4218L58.7551 59.067ZM91.9181 55.1078C97.5444 53.9664 102.965 52.6127 108.175 51.0764L107.738 49.4968C102.573 51.0197 97.1986 52.362 91.6188 53.4939L91.9181 55.1078ZM124.024 45.6154C129.403 43.4812 134.509 41.1545 139.339 38.6782L138.614 37.2133C133.832 39.6655 128.774 41.9702 123.444 44.0847L124.024 45.6154ZM153.908 30.2513C158.834 27.0503 163.377 23.7085 167.528 20.2937L166.505 19.0251C162.403 22.3997 157.91 25.7046 153.036 28.8719L153.908 30.2513ZM179.869 8.77131C181.87 6.6365 183.722 4.50197 185.422 2.38313L184.156 1.36035C182.484 3.4445 180.66 5.54659 178.688 7.65114L179.869 8.77131ZM186.417 1.68254C186.327 0.77921 185.525 0.131618 184.626 0.236107L169.98 1.93885C169.081 2.04334 168.426 2.86034 168.516 3.76368C168.606 4.66701 169.407 5.31461 170.306 5.21012L183.325 3.69656L184.628 16.7816C184.718 17.6849 185.519 18.3325 186.418 18.2281C187.317 18.1236 187.972 17.3066 187.882 16.4032L186.417 1.68254ZM0.625595 55.1395C3.38777 55.6825 6.12423 56.1776 8.8348 56.6263L9.41386 53.3766C6.73537 52.9332 4.03068 52.4439 1.29997 51.9071L0.625595 55.1395ZM25.3774 58.8343C31.0585 59.4075 36.6142 59.7744 42.0427 59.9505L42.1983 56.6591C36.8441 56.4854 31.3618 56.1235 25.7531 55.5576L25.3774 58.8343ZM58.7754 59.8896C64.5095 59.6575 70.0835 59.2098 75.4949 58.5679L75.1616 55.2975C69.8344 55.9294 64.3445 56.3705 58.6943 56.5992L58.7754 59.8896ZM92.0677 55.9148C97.7173 54.7687 103.161 53.4092 108.394 51.8662L107.519 48.707C102.377 50.2232 97.0257 51.5597 91.4692 52.6869L92.0677 55.9148ZM124.313 46.3807C129.717 44.2367 134.848 41.899 139.701 39.4106L138.252 36.4809C133.494 38.921 128.459 41.2147 123.155 43.3194L124.313 46.3807ZM154.343 30.941C159.296 27.7232 163.864 24.3629 168.04 20.928L165.994 18.3908C161.916 21.7453 157.448 25.0318 152.6 28.1822L154.343 30.941ZM180.46 9.33139C182.475 7.18145 184.341 5.03071 186.055 2.89452L183.523 0.848953C181.865 2.91576 180.056 5.00164 178.097 7.09105L180.46 9.33139Z" fill="#9BBDCF"/>
</svg>
