<svg width="175" height="69" viewBox="0 0 175 69" fill="none" xmlns="http://www.w3.org/2000/svg">
<path d="M172.704 66.5413C173.149 66.5011 173.471 66.0986 173.422 65.6423L172.629 58.2064C172.581 57.7501 172.18 57.4127 171.734 57.4529C171.289 57.4931 170.967 57.8955 171.016 58.3518L171.721 64.9615L165.267 65.5434C164.821 65.5835 164.5 65.986 164.548 66.4423C164.597 66.8986 164.998 67.236 165.443 67.1958L172.704 66.5413ZM0.456135 2.64863C2.93631 2.84868 5.48649 3.08194 8.1001 3.35085L8.22902 1.7004C5.60374 1.4303 3.04187 1.19596 0.55 0.994964L0.456135 2.64863ZM23.3855 5.24926C28.3104 5.96453 33.3901 6.80162 38.5898 7.77336L38.8492 6.14179C33.6275 5.16595 28.5264 4.32532 23.5807 3.60703L23.3855 5.24926ZM53.6945 10.9161C58.625 12.048 63.6279 13.3025 68.6768 14.6892L69.0671 13.0878C63.9953 11.6948 58.9702 10.4348 54.0184 9.29795L53.6945 10.9161ZM83.4971 19.1137C88.358 20.6849 93.2371 22.3841 98.1115 24.2196L98.6443 22.6644C93.7446 20.8194 88.8411 19.1118 83.9568 17.533L83.4971 19.1137ZM112.48 30.0479C117.197 32.105 121.888 34.2991 126.533 36.6379L127.226 35.1528C122.553 32.7997 117.834 30.5928 113.09 28.5243L112.48 30.0479ZM140.206 44.0379C144.68 46.6377 149.087 49.386 153.408 52.2899L154.28 50.9096C149.927 47.9846 145.489 45.2172 140.986 42.6001L140.206 44.0379ZM166.04 61.4343C168.09 63.0327 170.113 64.6712 172.107 66.3507L173.124 65.0794C171.113 63.3861 169.073 61.7344 167.008 60.1234L166.04 61.4343ZM172.792 67.3675C173.683 67.2871 174.326 66.4822 174.229 65.5696L172.643 50.6977C172.545 49.7851 171.744 49.1104 170.853 49.1907C169.962 49.2711 169.319 50.076 169.416 50.9886L170.826 64.2081L157.918 65.3717C157.027 65.452 156.384 66.257 156.481 67.1696C156.579 68.0822 157.38 68.7569 158.271 68.6766L172.792 67.3675ZM0.409202 3.47546C2.88353 3.67504 5.42787 3.90777 8.03564 4.17607L8.29348 0.875178C5.66236 0.604473 3.09465 0.369601 0.596933 0.168133L0.409202 3.47546ZM23.2879 6.07038C28.2024 6.78413 33.2714 7.61946 38.4601 8.58915L38.9789 5.326C33.7462 4.34812 28.6344 3.50572 23.6783 2.78592L23.2879 6.07038ZM53.5326 11.7252C58.4523 12.8547 63.4441 14.1063 68.4816 15.4899L69.2623 12.2871C64.179 10.891 59.1429 9.62819 54.1804 8.48888L53.5326 11.7252ZM83.2673 19.9041C88.1165 21.4715 92.9833 23.1664 97.8452 24.9971L98.9107 21.8869C93.9983 20.0371 89.0827 18.3252 84.1867 16.7427L83.2673 19.9041ZM112.175 30.8098C116.879 32.861 121.556 35.0487 126.187 37.3804L127.572 34.4103C122.885 32.0501 118.152 29.8368 113.395 27.7624L112.175 30.8098ZM139.816 44.7568C144.275 47.348 148.667 50.0866 152.973 52.9801L154.716 50.2195C150.347 47.2839 145.894 44.507 141.376 41.8812L139.816 44.7568ZM165.557 62.0897C167.598 63.6818 169.613 65.3137 171.599 66.9863L173.632 64.4437C171.613 62.7435 169.565 61.0852 167.491 59.4679L165.557 62.0897Z" fill="#9BBDCF"/>
</svg>
